<svg width="22" height="14" viewBox="0 0 22 14" fill="none" xmlns="http://www.w3.org/2000/svg">
<path d="M21.1957 4.66511L17.6478 0.328102C17.5625 0.224138 17.4612 0.141619 17.3494 0.0853057C17.2377 0.0289925 17.1179 0 16.9969 0C16.8758 0 16.756 0.0289925 16.6443 0.0853057C16.5326 0.141619 16.4312 0.224138 16.346 0.328102C16.1752 0.535927 16.0794 0.817058 16.0794 1.1101C16.0794 1.40313 16.1752 1.68426 16.346 1.89209L19.6097 5.87415H0.916767C0.673626 5.87415 0.440442 5.99101 0.268515 6.19903C0.0965877 6.40705 0 6.68918 0 6.98336H0C0 7.27754 0.0965877 7.55967 0.268515 7.76769C0.440442 7.97571 0.673626 8.09257 0.916767 8.09257H19.6647L16.346 12.0968C16.26 12.1999 16.1918 12.3226 16.1453 12.4578C16.0987 12.5929 16.0748 12.7379 16.0748 12.8844C16.0748 13.0308 16.0987 13.1758 16.1453 13.3109C16.1918 13.4461 16.26 13.5688 16.346 13.6719C16.4312 13.7759 16.5326 13.8584 16.6443 13.9147C16.756 13.971 16.8758 14 16.9969 14C17.1179 14 17.2377 13.971 17.3494 13.9147C17.4612 13.8584 17.5625 13.7759 17.6478 13.6719L21.1957 9.36816C21.7107 8.74423 22 7.89846 22 7.01664C22 6.13481 21.7107 5.28904 21.1957 4.66511Z" fill="#004759"/>
</svg>
