<svg width="280" height="60" viewBox="0 0 280 60" fill="none" xmlns="http://www.w3.org/2000/svg">
<path d="M86.6684 17.4191V24.6287H68.7213C68.0539 24.6287 67.7202 25.0317 67.7202 25.8375V28.7762H86.5465V35.5453H67.7202V44.6568H61.2575V22.4153C61.1675 21.7438 61.2152 21.0615 61.4006 20.4115C61.586 19.7668 61.8985 19.1758 62.3223 18.6923C62.7461 18.2088 63.2599 17.8381 63.8267 17.6178C64.3935 17.3976 65.0027 17.3277 65.6013 17.4191H86.6737H86.6684Z" fill="#004759"/>
<path d="M97.856 44.6512C96.5423 44.6781 95.2339 44.5115 93.9572 44.1462C92.9825 43.8668 92.082 43.3242 91.3298 42.5667C90.6306 41.82 90.122 40.8852 89.8413 39.8483C89.5023 38.5751 89.3381 37.2481 89.3592 35.9212V17.4189H95.8642V35.1422C95.8272 35.4914 95.8589 35.8513 95.9649 36.1844C96.0708 36.5175 96.2403 36.8237 96.4681 37.0655C96.6959 37.3072 96.9714 37.4953 97.268 37.6027C97.5699 37.7101 97.8878 37.7316 98.195 37.6725H108.228C109.838 37.6725 110.638 36.8291 110.638 35.1368V17.4189H117.143V35.948C117.239 37.1461 117.117 38.3495 116.778 39.4938C116.439 40.6327 115.893 41.6803 115.178 42.5721C113.313 44.1516 110.993 44.893 108.673 44.6512H97.8454H97.856Z" fill="#004759"/>
<path d="M147.226 17.4189V24.6285H136.632V44.6512H130.127V24.6285H119.506V17.4189H147.232H147.226Z" fill="#004759"/>
<path d="M158.075 44.6512C156.761 44.6781 155.452 44.5115 154.176 44.1462C153.206 43.8668 152.311 43.3242 151.57 42.5667C150.87 41.82 150.362 40.8852 150.081 39.8483C149.742 38.5751 149.578 37.2481 149.599 35.9212V17.4189H156.104V35.1422C156.067 35.4914 156.099 35.8513 156.205 36.1844C156.311 36.5175 156.48 36.8237 156.708 37.0655C156.936 37.3072 157.211 37.4953 157.508 37.6027C157.81 37.7101 158.128 37.7316 158.435 37.6725H168.452C170.062 37.6725 170.862 36.8291 170.862 35.1368V17.4189H177.367V35.948C177.462 37.1461 177.341 38.3495 177.002 39.4938C176.663 40.6381 176.117 41.6803 175.402 42.5721C173.532 44.1516 171.212 44.893 168.886 44.6512H158.064H158.075Z" fill="#004759"/>
<path d="M187.294 44.6512H180.826V19.0896C180.826 17.9668 181.356 17.3973 182.431 17.3973H199.584C200.85 17.349 202.116 17.5908 203.302 18.1065C204.229 18.5363 205.066 19.1702 205.771 19.9761C206.375 20.6798 206.851 21.5072 207.185 22.4151C207.53 23.3391 207.704 24.333 207.699 25.3376C207.71 26.4014 207.545 27.4597 207.217 28.4536C206.857 29.4743 206.232 30.35 205.427 30.9732C206.184 31.4514 206.799 32.1659 207.196 33.0308C207.614 34.1644 207.805 35.3893 207.752 36.6142V43.5015C207.768 43.8776 207.794 44.2536 207.842 44.6243H201.289C201.215 44.0226 201.178 43.4209 201.183 42.8138V37.377C201.21 37.0386 201.173 36.6947 201.067 36.3778C200.961 36.0608 200.791 35.7707 200.574 35.5343C199.97 35.1045 199.25 34.9111 198.54 34.9917H187.294V44.6565V44.6512ZM198.736 28.7867C199.118 28.8028 199.494 28.7222 199.843 28.5449C200.119 28.3891 200.362 28.1689 200.558 27.9002C200.866 27.5081 201.035 27.0084 201.04 26.4927C201.046 26.208 201.003 25.9286 200.913 25.6654C200.823 25.4021 200.68 25.1657 200.505 24.9616C200.278 24.7037 200.002 24.5049 199.7 24.3814C199.398 24.2578 199.075 24.2041 198.752 24.2363H187.819C187.75 24.2309 187.676 24.2417 187.612 24.2686C187.548 24.2954 187.485 24.3384 187.437 24.3975C187.389 24.4566 187.352 24.5211 187.326 24.5963C187.305 24.6715 187.294 24.7521 187.299 24.8273V28.7706L198.736 28.7813V28.7867Z" fill="#004759"/>
<path d="M217.441 17.4189V44.6512H210.952V17.4189H217.441Z" fill="#004759"/>
<path d="M251.015 39.3649C251.031 40.262 250.903 41.1485 250.639 41.9919C250.421 42.6688 250.082 43.2867 249.637 43.8024C249.23 44.2698 248.737 44.6297 248.186 44.8554C247.635 45.0864 247.052 45.1992 246.464 45.1992C245.548 45.2207 244.632 45.0488 243.773 44.6942C242.989 44.3504 242.29 43.7917 241.75 43.061L228.512 25.789C228.443 25.6869 228.358 25.601 228.258 25.5365C228.157 25.472 228.051 25.4398 227.935 25.429C227.855 25.429 227.776 25.4452 227.702 25.4774C227.627 25.5096 227.564 25.5633 227.506 25.6278C227.442 25.6977 227.394 25.7836 227.363 25.8803C227.331 25.9716 227.315 26.0737 227.32 26.1758V44.6459H220.964V23.1834C220.942 22.1842 221.08 21.1849 221.377 20.2394C221.615 19.4872 222.007 18.8103 222.521 18.2677C223.035 17.7574 223.644 17.3867 224.301 17.1771C225.032 16.9408 225.795 16.8279 226.552 16.8333C227.553 16.7635 228.554 16.973 229.466 17.4404C230.377 17.9132 231.171 18.6277 231.775 19.5302L243.588 35.4055C243.662 35.5183 243.758 35.6096 243.874 35.6687C243.98 35.7117 244.086 35.7278 244.197 35.7278C244.531 35.7278 244.679 35.486 244.679 35.0025V17.4135H251.004V39.3595L251.015 39.3649Z" fill="#004759"/>
<path d="M266.901 44.6513C264.968 44.6996 263.045 44.2967 261.254 43.464C259.421 42.5507 257.816 41.1378 256.587 39.3488C255.359 37.5598 254.548 35.4592 254.22 33.2297C253.891 31.0002 254.066 28.7116 254.723 26.5788C255.38 24.4406 256.492 22.5227 257.97 20.9969C259.077 19.8526 260.364 18.9608 261.773 18.3698C263.421 17.7037 265.158 17.3813 266.906 17.4243H279.938V24.6501H266.906C265.985 24.6179 265.063 24.779 264.194 25.1282C263.506 25.4291 262.875 25.8642 262.33 26.423C261.773 27.0193 261.328 27.7338 261.021 28.5235C260.417 30.0869 260.386 31.849 260.936 33.4392C261.191 34.1645 261.567 34.8307 262.049 35.3947C262.605 36.0663 263.273 36.6089 264.014 36.9903C264.925 37.4362 265.916 37.6458 266.912 37.6135H273.094C273.157 37.6243 273.226 37.6135 273.284 37.5867C273.348 37.5598 273.401 37.5222 273.449 37.4685C273.496 37.4147 273.528 37.3503 273.554 37.2804C273.576 37.2106 273.581 37.1354 273.576 37.0602V29.7538H279.985V42.9268C280.017 43.1631 279.996 43.4049 279.932 43.6305C279.869 43.8562 279.752 44.0603 279.604 44.2322C279.456 44.3988 279.276 44.5277 279.074 44.6029C278.873 44.6781 278.661 44.6996 278.449 44.6674L266.906 44.6566L266.901 44.6513Z" fill="#004759"/>
<path d="M6.58976 25.3864C6.58976 24.9996 6.68511 24.6181 6.87051 24.2851C7.05591 23.952 7.32607 23.6726 7.6545 23.4738C7.98293 23.2804 8.34844 23.1784 8.72984 23.1784C9.10594 23.1784 9.47675 23.2804 9.80518 23.4738L14.8058 26.4394C15.2084 25.3488 15.7752 24.3334 16.4903 23.4309L11.4897 20.4815L8.27428 18.5743L1.68982 14.6686L0 15.6732V43.0237L6.58976 39.1288V25.3864Z" fill="#004759"/>
<path d="M43.0296 35.3412C43.0296 35.728 42.929 36.1094 42.7383 36.4425C42.5476 36.7756 42.2774 37.0549 41.949 37.2483C41.6206 37.4418 41.2551 37.5438 40.8737 37.5438C40.4976 37.5438 40.1267 37.4418 39.7983 37.2483L34.7977 34.2882C34.3951 35.3788 33.823 36.3941 33.1079 37.2967L38.1138 40.2461L41.3292 42.1533L47.919 46.0536L49.5982 45.049V17.677L43.0137 21.5773V35.3412H43.0296Z" fill="#96BDC3"/>
<path d="M19.8909 11.6976C20.2193 11.5042 20.5901 11.4021 20.9662 11.4021C21.3423 11.4021 21.7131 11.5042 22.0416 11.6976C22.37 11.891 22.6402 12.1703 22.8309 12.5034C23.0215 12.8365 23.1169 13.2179 23.1169 13.6047V19.4874C24.2399 19.2887 25.3841 19.2887 26.5071 19.4874V1.99515L24.8067 0.995895L23.1169 1.99515L1.7002 14.6685L8.29525 18.5849L19.8909 11.6976Z" fill="#96BDC3"/>
<path d="M29.7285 49.0031C29.4001 49.1965 29.0293 49.2986 28.6532 49.2986C28.2771 49.2986 27.9063 49.1965 27.5779 49.0031C27.2494 48.8097 26.9793 48.5303 26.7939 48.1973C26.6032 47.8642 26.5078 47.4827 26.5025 47.0959V41.181C25.3795 41.3905 24.2353 41.3905 23.1123 41.181V58.7055L24.8021 59.7048L26.4972 58.7055L47.9086 46.0322L41.3136 42.1373L29.718 49.0031H29.7285Z" fill="#004759"/>
<path d="M11.4897 44.0337C11.1613 43.8403 10.8911 43.5609 10.7057 43.2278C10.515 42.8947 10.4197 42.5133 10.4197 42.1265C10.4197 41.7397 10.5203 41.3583 10.7057 41.0252C10.8964 40.6921 11.1666 40.4127 11.4897 40.2193L16.485 37.2645C15.7699 36.362 15.1978 35.3466 14.7952 34.256L9.81047 37.2162L6.59505 39.1234L0 43.0183V45.0276L1.68982 46.0268L23.1012 58.7001V50.8888L11.4844 44.0283L11.4897 44.0337Z" fill="#96BDC3"/>
<path d="M47.9294 14.6687L26.5127 1.99538V9.79062L38.1242 16.6672C38.4527 16.8606 38.7228 17.1346 38.9135 17.4677C39.1042 17.8008 39.1996 18.1822 39.1996 18.569C39.1996 18.9558 39.0989 19.3319 38.9135 19.6703C38.7228 20.0034 38.4527 20.2828 38.1242 20.4708L33.1289 23.4256C33.8441 24.3281 34.4162 25.3435 34.8188 26.4341L39.8034 23.4686L43.0295 21.5614L49.6139 17.6826V15.6679L47.9241 14.6633L47.9294 14.6687Z" fill="#004759"/>
</svg>
