<svg width="121" height="26" viewBox="0 0 121 26" fill="none" xmlns="http://www.w3.org/2000/svg">
<path d="M37.1438 7.03859V10.1285H29.4521C29.1661 10.1285 29.023 10.3012 29.023 10.6465V11.906H37.0916V14.8071H29.023V18.7121H26.2533V9.17988C26.2147 8.89207 26.2351 8.59966 26.3146 8.32106C26.3941 8.04477 26.528 7.7915 26.7096 7.58428C26.8912 7.37705 27.1115 7.21818 27.3544 7.12378C27.5973 7.02938 27.8584 6.99945 28.1149 7.03859H37.1461H37.1438Z" fill="#004759"/>
<path d="M41.9387 18.7097C41.3757 18.7213 40.8149 18.6499 40.2678 18.4933C39.85 18.3736 39.4641 18.141 39.1417 17.8164C38.842 17.4964 38.6241 17.0957 38.5038 16.6513C38.3585 16.1057 38.2881 15.537 38.2972 14.9682V7.03857H41.0851V14.6344C41.0692 14.7841 41.0828 14.9383 41.1282 15.0811C41.1736 15.2238 41.2463 15.3551 41.3439 15.4587C41.4415 15.5623 41.5596 15.6429 41.6867 15.6889C41.8161 15.735 41.9523 15.7442 42.084 15.7189H46.3839C47.0741 15.7189 47.4169 15.3574 47.4169 14.6321V7.03857H50.2048V14.9798C50.2456 15.4932 50.1934 16.009 50.0481 16.4994C49.9028 16.9875 49.669 17.4365 49.3625 17.8187C48.5634 18.4956 47.569 18.8134 46.5746 18.7097H41.9341H41.9387Z" fill="#004759"/>
<path d="M63.0976 7.03857V10.1285H58.5571V18.7097H55.7692V10.1285H51.2173V7.03857H63.0999H63.0976Z" fill="#004759"/>
<path d="M67.747 18.7097C67.184 18.7213 66.6232 18.6499 66.0761 18.4933C65.6606 18.3736 65.2769 18.141 64.9591 17.8164C64.6594 17.4964 64.4415 17.0957 64.3211 16.6513C64.1758 16.1057 64.1055 15.537 64.1145 14.9682V7.03857H66.9024V14.6344C66.8866 14.7841 66.9002 14.9383 66.9456 15.0811C66.991 15.2238 67.0636 15.3551 67.1613 15.4587C67.2589 15.5623 67.3769 15.6429 67.5041 15.6889C67.6335 15.735 67.7697 15.7442 67.9014 15.7189H72.1945C72.8846 15.7189 73.2274 15.3574 73.2274 14.6321V7.03857H76.0153V14.9798C76.0562 15.4932 76.004 16.009 75.8587 16.4994C75.7134 16.9898 75.4796 17.4365 75.1731 17.8187C74.3717 18.4956 73.3773 18.8134 72.3806 18.7097H67.7425H67.747Z" fill="#004759"/>
<path d="M80.2701 18.7097H77.498V7.7546C77.498 7.27339 77.7251 7.02933 78.1859 7.02933H85.5371C86.0797 7.00861 86.6223 7.11222 87.1308 7.33325C87.5281 7.51745 87.8868 7.78914 88.1888 8.13451C88.4476 8.43613 88.6519 8.79071 88.7949 9.17983C88.9425 9.57585 89.0174 10.0018 89.0152 10.4324C89.0197 10.8883 88.9493 11.3418 88.8086 11.7678C88.6542 12.2053 88.3863 12.5806 88.0412 12.8476C88.3659 13.0526 88.6292 13.3588 88.7995 13.7295C88.9788 14.2153 89.0606 14.7403 89.0379 15.2652V18.217C89.0447 18.3782 89.056 18.5393 89.0765 18.6982H86.2681C86.2363 18.4403 86.2205 18.1824 86.2227 17.9223V15.5922C86.2341 15.4471 86.2182 15.2998 86.1728 15.1639C86.1274 15.0281 86.0547 14.9037 85.9616 14.8024C85.7028 14.6182 85.3941 14.5353 85.0899 14.5699H80.2701V18.712V18.7097ZM85.1739 11.9105C85.3373 11.9175 85.4985 11.8829 85.6483 11.8069C85.7664 11.7402 85.8708 11.6458 85.9548 11.5306C86.0865 11.3626 86.1592 11.1484 86.1614 10.9274C86.1637 10.8054 86.1455 10.6856 86.1069 10.5728C86.0683 10.46 86.007 10.3587 85.9321 10.2712C85.8345 10.1607 85.7164 10.0755 85.587 10.0225C85.4576 9.96957 85.3192 9.94654 85.1807 9.96036H80.4948C80.4653 9.95806 80.4335 9.96266 80.4063 9.97417C80.379 9.98569 80.3518 10.0041 80.3314 10.0294C80.3109 10.0548 80.295 10.0824 80.2837 10.1146C80.2746 10.1469 80.2701 10.1814 80.2723 10.2136V11.9036L85.1739 11.9082V11.9105Z" fill="#004759"/>
<path d="M93.1903 7.03857V18.7097H90.4092V7.03857H93.1903Z" fill="#004759"/>
<path d="M107.579 16.4441C107.586 16.8286 107.531 17.2085 107.418 17.57C107.325 17.8601 107.179 18.1249 106.989 18.346C106.814 18.5463 106.603 18.7005 106.367 18.7972C106.13 18.8963 105.881 18.9446 105.629 18.9446C105.236 18.9538 104.843 18.8801 104.475 18.7282C104.139 18.5808 103.84 18.3414 103.608 18.0282L97.9348 10.6258C97.9053 10.5821 97.8689 10.5452 97.8258 10.5176C97.7827 10.49 97.7373 10.4762 97.6873 10.4716C97.6533 10.4716 97.6192 10.4785 97.5874 10.4923C97.5556 10.5061 97.5284 10.5291 97.5034 10.5567C97.4762 10.5867 97.4558 10.6235 97.4421 10.665C97.4285 10.7041 97.4217 10.7478 97.424 10.7916V18.7075H94.6996V9.50912C94.6906 9.08086 94.7496 8.65261 94.8767 8.24737C94.9789 7.92503 95.1469 7.63492 95.3671 7.40237C95.5873 7.18364 95.8484 7.02477 96.1299 6.93497C96.4432 6.83366 96.7701 6.78531 97.0948 6.78761C97.5239 6.75768 97.9529 6.84748 98.3434 7.04779C98.7339 7.25041 99.0745 7.55663 99.3333 7.94345L104.396 14.7472C104.428 14.7956 104.469 14.8347 104.519 14.86C104.564 14.8785 104.609 14.8854 104.657 14.8854C104.8 14.8854 104.864 14.7818 104.864 14.5745V7.03628H107.574V16.4418L107.579 16.4441Z" fill="#004759"/>
<path d="M114.388 18.7098C113.559 18.7305 112.735 18.5578 111.967 18.201C111.182 17.8095 110.494 17.204 109.967 16.4373C109.441 15.6706 109.093 14.7703 108.953 13.8148C108.812 12.8593 108.887 11.8784 109.168 10.9643C109.45 10.0479 109.926 9.22597 110.56 8.57207C111.034 8.08165 111.586 7.69944 112.19 7.44617C112.896 7.16066 113.641 7.02251 114.39 7.04093H119.975V10.1377H114.39C113.995 10.1239 113.6 10.193 113.227 10.3427C112.932 10.4716 112.662 10.6581 112.428 10.8976C112.19 11.1531 111.999 11.4594 111.868 11.7978C111.609 12.4678 111.595 13.223 111.831 13.9046C111.94 14.2154 112.101 14.5009 112.308 14.7427C112.546 15.0305 112.832 15.263 113.15 15.4265C113.541 15.6176 113.965 15.7074 114.392 15.6936H117.042C117.069 15.6982 117.098 15.6936 117.123 15.6821C117.15 15.6706 117.173 15.6544 117.194 15.6314C117.214 15.6084 117.228 15.5808 117.239 15.5508C117.248 15.5209 117.25 15.4887 117.248 15.4564V12.3251H119.995V17.9707C120.009 18.072 120 18.1756 119.972 18.2723C119.945 18.369 119.895 18.4565 119.832 18.5302C119.768 18.6016 119.691 18.6568 119.605 18.6891C119.518 18.7213 119.428 18.7305 119.337 18.7167L114.39 18.7121L114.388 18.7098Z" fill="#004759"/>
<path d="M2.82422 10.4532C2.82422 10.2874 2.86509 10.1239 2.94455 9.98115C3.02401 9.83839 3.13979 9.71867 3.28055 9.63347C3.42131 9.55059 3.57796 9.50684 3.74142 9.50684C3.90261 9.50684 4.06152 9.55059 4.20228 9.63347L6.34542 10.9044C6.51796 10.437 6.76088 10.0019 7.06737 9.61505L4.92423 8.351L3.54617 7.53363L0.724218 5.85974L0 6.2903V18.0121L2.82422 16.3428V10.4532Z" fill="#004759"/>
<path d="M18.4417 14.7197C18.4417 14.8854 18.3985 15.0489 18.3168 15.1917C18.2351 15.3344 18.1193 15.4541 17.9785 15.537C17.8378 15.6199 17.6811 15.6637 17.5177 15.6637C17.3565 15.6637 17.1976 15.6199 17.0568 15.537L14.9137 14.2684C14.7411 14.7358 14.4959 15.1709 14.1895 15.5578L16.3349 16.8218L17.7129 17.6392L20.5371 19.3108L21.2568 18.8802V7.14917L18.4349 8.82076V14.7197H18.4417Z" fill="#96BDC3"/>
<path d="M8.52464 4.5865C8.6654 4.50361 8.82432 4.45987 8.98551 4.45987C9.1467 4.45987 9.30562 4.50361 9.44638 4.5865C9.58713 4.66939 9.70292 4.78912 9.78465 4.93187C9.86638 5.07462 9.90724 5.2381 9.90724 5.40388V7.92507C10.3885 7.83988 10.8789 7.83988 11.3602 7.92507V0.428258L10.6315 0L9.90724 0.428258L0.728516 5.85976L3.55501 7.53826L8.52464 4.5865Z" fill="#96BDC3"/>
<path d="M12.7408 20.5748C12.6001 20.6577 12.4412 20.7014 12.28 20.7014C12.1188 20.7014 11.9599 20.6577 11.8191 20.5748C11.6784 20.4919 11.5626 20.3722 11.4831 20.2294C11.4014 20.0867 11.3605 19.9232 11.3582 19.7574V17.2224C10.877 17.3122 10.3866 17.3122 9.90527 17.2224V24.733L10.6295 25.1613L11.356 24.733L20.5324 19.3015L17.7059 17.6322L12.7363 20.5748H12.7408Z" fill="#004759"/>
<path d="M4.92423 18.445C4.78347 18.3621 4.66769 18.2424 4.58823 18.0996C4.5065 17.9569 4.46563 17.7934 4.46563 17.6276C4.46563 17.4618 4.50877 17.2984 4.58823 17.1556C4.66996 17.0129 4.78574 16.8931 4.92423 16.8102L7.0651 15.5439C6.75861 15.1571 6.51342 14.7219 6.34088 14.2545L4.20455 15.5232L2.82649 16.3405L0 18.0098V18.871L0.724218 19.2992L9.90068 24.7307V21.3829L4.92196 18.4427L4.92423 18.445Z" fill="#96BDC3"/>
<path d="M20.5415 5.85973L11.3628 0.428223V3.76909L16.3392 6.71624C16.48 6.79913 16.5958 6.91656 16.6775 7.05931C16.7592 7.20206 16.8001 7.36554 16.8001 7.53131C16.8001 7.69709 16.757 7.85826 16.6775 8.00332C16.5958 8.14607 16.48 8.2658 16.3392 8.34638L14.1984 9.61274C14.5049 9.99955 14.75 10.4347 14.9226 10.9021L17.0589 9.63116L18.4415 8.81378L21.2635 7.15141V6.28798L20.5393 5.85742L20.5415 5.85973Z" fill="#004759"/>
</svg>
