<svg width="21" height="20" viewBox="0 0 21 20" fill="none" xmlns="http://www.w3.org/2000/svg">
<path d="M12.245 9.82604L9.9054 8.73438C9.70124 8.63958 9.53353 8.74583 9.53353 8.97187V11.0281C9.53353 11.2542 9.70124 11.3604 9.9054 11.2656L12.2439 10.174C12.4492 10.0781 12.4492 9.92188 12.245 9.82604ZM10.5752 0C5.05228 0 0.575195 4.47708 0.575195 10C0.575195 15.5229 5.05228 20 10.5752 20C16.0981 20 20.5752 15.5229 20.5752 10C20.5752 4.47708 16.0981 0 10.5752 0ZM10.5752 14.0625C5.45645 14.0625 5.36686 13.601 5.36686 10C5.36686 6.39896 5.45645 5.9375 10.5752 5.9375C15.6939 5.9375 15.7835 6.39896 15.7835 10C15.7835 13.601 15.6939 14.0625 10.5752 14.0625Z" fill="#B4BABC"/>
</svg>
